<mxfile host="app.diagrams.net" agent="Mozilla/5.0 (Macintosh; Intel Mac OS X 10_15_7) AppleWebKit/537.36 (KHTML, like Gecko) Chrome/133.0.0.0 Safari/537.36" version="26.0.14">
  <diagram name="第 1 页" id="bPMIMUnnVZ51AsMIhVQp">
    <mxGraphModel dx="954" dy="630" grid="1" gridSize="10" guides="1" tooltips="1" connect="1" arrows="1" fold="1" page="1" pageScale="1" pageWidth="827" pageHeight="1169" math="0" shadow="0">
      <root>
        <mxCell id="0" />
        <mxCell id="1" parent="0" />
        <mxCell id="ikPtMA8YlD2nCyeHiFWI-1" value="" style="rounded=1;whiteSpace=wrap;html=1;" vertex="1" parent="1">
          <mxGeometry x="160" y="180" width="80" height="120" as="geometry" />
        </mxCell>
        <mxCell id="ikPtMA8YlD2nCyeHiFWI-5" value="" style="rounded=1;whiteSpace=wrap;html=1;" vertex="1" parent="1">
          <mxGeometry x="270" y="180" width="80" height="120" as="geometry" />
        </mxCell>
        <mxCell id="ikPtMA8YlD2nCyeHiFWI-6" value="" style="rounded=1;whiteSpace=wrap;html=1;" vertex="1" parent="1">
          <mxGeometry x="380" y="180" width="80" height="120" as="geometry" />
        </mxCell>
        <mxCell id="ikPtMA8YlD2nCyeHiFWI-7" value="dog" style="text;html=1;align=center;verticalAlign=middle;whiteSpace=wrap;rounded=0;" vertex="1" parent="1">
          <mxGeometry x="160" y="180" width="60" height="30" as="geometry" />
        </mxCell>
        <mxCell id="ikPtMA8YlD2nCyeHiFWI-8" value="cat" style="text;html=1;align=center;verticalAlign=middle;whiteSpace=wrap;rounded=0;" vertex="1" parent="1">
          <mxGeometry x="270" y="180" width="60" height="30" as="geometry" />
        </mxCell>
        <mxCell id="ikPtMA8YlD2nCyeHiFWI-9" value="pig" style="text;html=1;align=center;verticalAlign=middle;whiteSpace=wrap;rounded=0;" vertex="1" parent="1">
          <mxGeometry x="380" y="180" width="60" height="30" as="geometry" />
        </mxCell>
        <mxCell id="ikPtMA8YlD2nCyeHiFWI-10" value="呼吸" style="rounded=0;whiteSpace=wrap;html=1;" vertex="1" parent="1">
          <mxGeometry x="165" y="220" width="70" height="20" as="geometry" />
        </mxCell>
        <mxCell id="ikPtMA8YlD2nCyeHiFWI-11" value="呼吸" style="rounded=0;whiteSpace=wrap;html=1;" vertex="1" parent="1">
          <mxGeometry x="275" y="220" width="70" height="20" as="geometry" />
        </mxCell>
        <mxCell id="ikPtMA8YlD2nCyeHiFWI-12" value="呼吸" style="rounded=0;whiteSpace=wrap;html=1;" vertex="1" parent="1">
          <mxGeometry x="385" y="220" width="70" height="20" as="geometry" />
        </mxCell>
        <mxCell id="ikPtMA8YlD2nCyeHiFWI-13" value="" style="endArrow=none;dashed=1;html=1;rounded=0;dashPattern=1 4;strokeWidth=2;" edge="1" parent="1">
          <mxGeometry width="50" height="50" relative="1" as="geometry">
            <mxPoint x="199.5" y="290" as="sourcePoint" />
            <mxPoint x="199.5" y="250" as="targetPoint" />
          </mxGeometry>
        </mxCell>
        <mxCell id="ikPtMA8YlD2nCyeHiFWI-14" value="" style="endArrow=none;dashed=1;html=1;rounded=0;dashPattern=1 4;strokeWidth=2;" edge="1" parent="1">
          <mxGeometry width="50" height="50" relative="1" as="geometry">
            <mxPoint x="309.5" y="290" as="sourcePoint" />
            <mxPoint x="309.5" y="250" as="targetPoint" />
          </mxGeometry>
        </mxCell>
        <mxCell id="ikPtMA8YlD2nCyeHiFWI-16" value="" style="endArrow=none;dashed=1;html=1;rounded=0;dashPattern=1 4;strokeWidth=2;" edge="1" parent="1">
          <mxGeometry width="50" height="50" relative="1" as="geometry">
            <mxPoint x="419.5" y="290" as="sourcePoint" />
            <mxPoint x="419.5" y="250" as="targetPoint" />
          </mxGeometry>
        </mxCell>
      </root>
    </mxGraphModel>
  </diagram>
</mxfile>
